<svg width="119" height="103" viewBox="0 0 119 103" fill="none" xmlns="http://www.w3.org/2000/svg">
<g clip-path="url(#clip0)">
<g opacity="0.5">
<path opacity="0.5" d="M18.0811 18.3467H17.6089V21.0199H18.0811V18.3467Z" fill="#47E6B1"/>
<path opacity="0.5" d="M19.1831 19.919V19.4473H16.5073V19.919H19.1831Z" fill="#47E6B1"/>
</g>
<g opacity="0.5">
<path opacity="0.5" d="M34.8662 76.5249H34.394V79.1981H34.8662V76.5249Z" fill="#47E6B1"/>
<path opacity="0.5" d="M35.9663 78.0972V77.6255H33.2905V78.0972H35.9663Z" fill="#47E6B1"/>
</g>
<g opacity="0.5">
<path opacity="0.5" d="M11.3706 45.4736H10.8984V48.1468H11.3706V45.4736Z" fill="#47E6B1"/>
<path opacity="0.5" d="M12.4727 47.046V46.5742H9.79686V47.046H12.4727Z" fill="#47E6B1"/>
</g>
<g opacity="0.5">
<path opacity="0.5" d="M94.041 0H93.5688V2.67317H94.041V0Z" fill="#47E6B1"/>
<path opacity="0.5" d="M95.1431 1.57232V1.10059L92.4673 1.10059V1.57232L95.1431 1.57232Z" fill="#47E6B1"/>
</g>
<g opacity="0.5">
<path opacity="0.5" d="M14.3648 6.64795H13.8926V9.32112H14.3648V6.64795Z" fill="#47E6B1"/>
<path opacity="0.5" d="M15.4648 8.22028V7.74854H12.789V8.22028H15.4648Z" fill="#47E6B1"/>
</g>
<path opacity="0.5" d="M23.4111 66.9849C23.2811 66.9282 23.1764 66.8257 23.1171 66.697C23.0577 66.5682 23.0478 66.4221 23.0892 66.2865C23.0959 66.2658 23.1002 66.2444 23.102 66.2228C23.1115 66.1585 23.0986 66.0929 23.0655 66.037C23.0324 65.981 22.981 65.9382 22.92 65.9156C22.859 65.893 22.7921 65.8921 22.7305 65.9129C22.6689 65.9338 22.6163 65.9752 22.5816 66.0301C22.5686 66.0477 22.5576 66.0667 22.549 66.0868C22.4922 66.2167 22.3896 66.3212 22.2607 66.3805C22.1318 66.4398 21.9856 66.4497 21.8499 66.4084C21.8292 66.4017 21.8078 66.3974 21.7861 66.3956C21.7217 66.3861 21.6561 66.399 21.6001 66.4321C21.5441 66.4652 21.5012 66.5165 21.4786 66.5774C21.456 66.6384 21.4551 66.7052 21.4759 66.7668C21.4968 66.8283 21.5382 66.8808 21.5932 66.9155C21.6108 66.9285 21.6298 66.9394 21.65 66.9481C21.78 67.0048 21.8847 67.1073 21.944 67.2361C22.0033 67.3648 22.0133 67.5109 21.9718 67.6465C21.9652 67.6672 21.9609 67.6886 21.9591 67.7102C21.9496 67.7745 21.9624 67.8401 21.9956 67.896C22.0287 67.952 22.0801 67.9948 22.1411 68.0174C22.2021 68.04 22.269 68.0409 22.3306 68.0201C22.3922 67.9992 22.4448 67.9579 22.4795 67.9029C22.4925 67.8853 22.5035 67.8663 22.5121 67.8462C22.5689 67.7163 22.6715 67.6118 22.8004 67.5525C22.9293 67.4932 23.0755 67.4833 23.2112 67.5247C23.2319 67.5313 23.2533 67.5356 23.275 67.5374C23.3394 67.5469 23.405 67.534 23.461 67.5009C23.517 67.4678 23.5599 67.4165 23.5825 67.3556C23.6051 67.2946 23.606 67.2278 23.5852 67.1662C23.5643 67.1047 23.5229 67.0522 23.4679 67.0175C23.4503 67.0045 23.4312 66.9936 23.4111 66.9849Z" fill="#4D8AF0"/>
<path opacity="0.5" d="M21.0718 92.3926C20.9418 92.3359 20.8371 92.2334 20.7778 92.1047C20.7184 91.9759 20.7085 91.8298 20.7499 91.6942C20.7566 91.6735 20.7609 91.6522 20.7627 91.6305C20.7722 91.5662 20.7593 91.5006 20.7262 91.4447C20.6931 91.3887 20.6417 91.3459 20.5807 91.3233C20.5197 91.3007 20.4528 91.2998 20.3912 91.3206C20.3295 91.3415 20.277 91.3829 20.2423 91.4378C20.2292 91.4554 20.2183 91.4744 20.2097 91.4945C20.1532 91.6244 20.0509 91.729 19.9223 91.7885C19.7937 91.8481 19.6477 91.8584 19.512 91.8175C19.4913 91.8108 19.4699 91.8065 19.4482 91.8047C19.3838 91.7952 19.3182 91.8081 19.2622 91.8412C19.2062 91.8743 19.1633 91.9256 19.1407 91.9865C19.1181 92.0475 19.1172 92.1143 19.138 92.1759C19.1589 92.2374 19.2003 92.29 19.2553 92.3246C19.2729 92.3376 19.292 92.3486 19.3121 92.3572C19.4421 92.4139 19.5468 92.5164 19.6061 92.6452C19.6655 92.7739 19.6754 92.92 19.6339 93.0556C19.6273 93.0763 19.623 93.0977 19.6212 93.1193C19.6117 93.1836 19.6245 93.2492 19.6577 93.3052C19.6908 93.3611 19.7422 93.4039 19.8032 93.4265C19.8642 93.4491 19.9311 93.45 19.9927 93.4292C20.0543 93.4083 20.1069 93.367 20.1416 93.312C20.1546 93.2944 20.1656 93.2754 20.1742 93.2553C20.231 93.1254 20.3336 93.0209 20.4625 92.9616C20.5914 92.9023 20.7376 92.8924 20.8733 92.9338C20.894 92.9404 20.9154 92.9447 20.9371 92.9465C21.0014 92.956 21.0671 92.9432 21.1231 92.9101C21.1791 92.877 21.222 92.8256 21.2446 92.7647C21.2672 92.7038 21.2681 92.6369 21.2473 92.5754C21.2264 92.5138 21.185 92.4613 21.1299 92.4266C21.112 92.413 21.0925 92.4016 21.0718 92.3926Z" fill="#4D8AF0"/>
<path opacity="0.5" d="M107.146 36.1524C107.016 36.0957 106.911 35.9932 106.852 35.8644C106.792 35.7357 106.782 35.5896 106.824 35.454C106.83 35.4333 106.835 35.4119 106.836 35.3903C106.846 35.326 106.833 35.2604 106.8 35.2044C106.767 35.1485 106.715 35.1057 106.654 35.0831C106.593 35.0605 106.527 35.0596 106.465 35.0804C106.403 35.1013 106.351 35.1426 106.316 35.1976C106.303 35.2152 106.292 35.2342 106.283 35.2543C106.227 35.3841 106.125 35.4888 105.996 35.5483C105.867 35.6078 105.721 35.6181 105.586 35.5773C105.565 35.5706 105.544 35.5663 105.522 35.5645C105.458 35.555 105.392 35.5679 105.336 35.601C105.28 35.6341 105.237 35.6854 105.214 35.7463C105.192 35.8073 105.191 35.8741 105.212 35.9357C105.233 35.9972 105.274 36.0497 105.329 36.0844C105.347 36.0974 105.366 36.1084 105.386 36.117C105.516 36.1737 105.62 36.2762 105.68 36.405C105.739 36.5337 105.749 36.6798 105.708 36.8154C105.701 36.8361 105.697 36.8575 105.695 36.8791C105.685 36.9434 105.698 37.009 105.731 37.065C105.765 37.1209 105.816 37.1637 105.877 37.1863C105.938 37.2089 106.005 37.2098 106.066 37.189C106.128 37.1681 106.181 37.1268 106.215 37.0718C106.228 37.0542 106.239 37.0352 106.248 37.0151C106.305 36.8852 106.407 36.7807 106.536 36.7214C106.665 36.6621 106.811 36.6522 106.947 36.6936C106.968 36.7002 106.989 36.7045 107.011 36.7063C107.075 36.7158 107.141 36.703 107.197 36.6699C107.253 36.6368 107.296 36.5854 107.318 36.5245C107.341 36.4636 107.342 36.3967 107.321 36.3352C107.3 36.2736 107.259 36.2211 107.204 36.1864C107.186 36.1728 107.166 36.1614 107.146 36.1524Z" fill="#4D8AF0"/>
<path opacity="0.5" d="M103.25 62.9747C103.12 62.918 103.015 62.8155 102.956 62.6867C102.897 62.5579 102.887 62.4119 102.928 62.2763C102.935 62.2556 102.939 62.2342 102.941 62.2125C102.95 62.1482 102.938 62.0826 102.904 62.0267C102.871 61.9708 102.82 61.9279 102.759 61.9054C102.698 61.8828 102.631 61.8818 102.569 61.9027C102.508 61.9235 102.455 61.9649 102.42 62.0199C102.407 62.0374 102.397 62.0564 102.388 62.0765C102.331 62.2064 102.228 62.311 102.1 62.3703C101.971 62.4296 101.824 62.4395 101.689 62.3981C101.668 62.3914 101.647 62.3871 101.625 62.3854C101.561 62.3758 101.495 62.3887 101.439 62.4218C101.383 62.4549 101.34 62.5062 101.317 62.5672C101.295 62.6281 101.294 62.695 101.315 62.7565C101.336 62.8181 101.377 62.8706 101.432 62.9053C101.45 62.9183 101.469 62.9292 101.489 62.9378C101.619 62.9946 101.724 63.097 101.783 63.2258C101.842 63.3546 101.852 63.5006 101.811 63.6362C101.804 63.6569 101.8 63.6783 101.798 63.7C101.788 63.7643 101.801 63.8299 101.834 63.8858C101.868 63.9417 101.919 63.9846 101.98 64.0072C102.041 64.0297 102.108 64.0307 102.169 64.0098C102.231 63.989 102.284 63.9476 102.318 63.8926C102.331 63.8751 102.342 63.8561 102.351 63.836C102.408 63.7061 102.51 63.6015 102.639 63.5422C102.768 63.4829 102.914 63.473 103.05 63.5144C103.071 63.5211 103.092 63.5254 103.114 63.5272C103.178 63.5367 103.244 63.5238 103.3 63.4907C103.356 63.4576 103.399 63.4063 103.421 63.3453C103.444 63.2844 103.445 63.2175 103.424 63.156C103.403 63.0944 103.362 63.0419 103.307 63.0073C103.289 62.9942 103.27 62.9833 103.25 62.9747Z" fill="#4D8AF0"/>
<path opacity="0.5" d="M106.153 9.52105C106.023 9.46433 105.918 9.36185 105.859 9.23308C105.799 9.10431 105.79 8.95825 105.831 8.82266C105.838 8.80197 105.842 8.78057 105.844 8.75891C105.853 8.69462 105.84 8.62901 105.807 8.57309C105.774 8.51716 105.723 8.47432 105.662 8.45174C105.601 8.42915 105.534 8.42821 105.472 8.44906C105.411 8.46991 105.358 8.51128 105.323 8.56625C105.31 8.58381 105.299 8.60283 105.291 8.62291C105.234 8.75283 105.131 8.85738 105.002 8.91667C104.874 8.97596 104.727 8.98586 104.592 8.94449C104.571 8.9378 104.549 8.93352 104.528 8.93173C104.463 8.92222 104.398 8.93509 104.342 8.96819C104.286 9.00129 104.243 9.05262 104.22 9.11356C104.198 9.17449 104.197 9.24134 104.218 9.3029C104.238 9.36445 104.28 9.41696 104.335 9.45164C104.353 9.46465 104.372 9.47558 104.392 9.48422C104.522 9.54094 104.626 9.64342 104.686 9.77219C104.745 9.90096 104.755 10.047 104.714 10.1826C104.707 10.2033 104.703 10.2247 104.701 10.2464C104.691 10.3106 104.704 10.3763 104.737 10.4322C104.77 10.4881 104.822 10.531 104.883 10.5535C104.944 10.5761 105.011 10.5771 105.072 10.5562C105.134 10.5354 105.187 10.494 105.221 10.439C105.234 10.4215 105.245 10.4024 105.254 10.3824C105.311 10.2524 105.413 10.1479 105.542 10.0886C105.671 10.0293 105.817 10.0194 105.953 10.0608C105.974 10.0675 105.995 10.0717 106.017 10.0735C106.081 10.0831 106.147 10.0702 106.203 10.0371C106.259 10.004 106.302 9.95265 106.324 9.89172C106.347 9.83078 106.348 9.76393 106.327 9.70237C106.306 9.64082 106.265 9.58831 106.21 9.55363C106.192 9.54062 106.173 9.52969 106.153 9.52105Z" fill="#4D8AF0"/>
<path opacity="0.5" d="M115.259 79.2261C115.129 79.1694 115.025 79.0669 114.965 78.9381C114.906 78.8094 114.896 78.6633 114.937 78.5277C114.944 78.507 114.948 78.4857 114.95 78.464C114.96 78.3997 114.947 78.3341 114.914 78.2782C114.881 78.2222 114.829 78.1794 114.768 78.1568C114.707 78.1342 114.64 78.1333 114.579 78.1541C114.517 78.175 114.464 78.2164 114.43 78.2713C114.417 78.2889 114.406 78.3079 114.397 78.328C114.34 78.4579 114.238 78.5625 114.109 78.6217C113.98 78.681 113.834 78.6909 113.698 78.6496C113.677 78.6429 113.656 78.6386 113.634 78.6368C113.57 78.6273 113.504 78.6402 113.448 78.6733C113.392 78.7064 113.349 78.7577 113.327 78.8186C113.304 78.8796 113.303 78.9464 113.324 79.008C113.345 79.0695 113.386 79.122 113.441 79.1567C113.459 79.1697 113.478 79.1807 113.498 79.1893C113.628 79.246 113.733 79.3485 113.792 79.4773C113.851 79.606 113.861 79.7521 113.82 79.8877C113.813 79.9084 113.809 79.9298 113.807 79.9514C113.798 80.0157 113.811 80.0813 113.844 80.1372C113.877 80.1932 113.928 80.236 113.989 80.2586C114.05 80.2812 114.117 80.2821 114.179 80.2613C114.24 80.2404 114.293 80.1991 114.328 80.1441C114.341 80.1265 114.352 80.1075 114.36 80.0874C114.417 79.9575 114.52 79.853 114.648 79.7937C114.777 79.7344 114.924 79.7245 115.059 79.7659C115.08 79.7725 115.101 79.7768 115.123 79.7786C115.187 79.7881 115.253 79.7752 115.309 79.7421C115.365 79.709 115.408 79.6577 115.431 79.5968C115.453 79.5358 115.454 79.469 115.433 79.4074C115.412 79.3459 115.371 79.2934 115.316 79.2587C115.298 79.2457 115.279 79.2348 115.259 79.2261Z" fill="#4D8AF0"/>
<path opacity="0.5" d="M0.944399 37.4612C1.46598 37.4612 1.8888 37.0388 1.8888 36.5177C1.8888 35.9966 1.46598 35.5742 0.944399 35.5742C0.422822 35.5742 0 35.9966 0 36.5177C0 37.0388 0.422822 37.4612 0.944399 37.4612Z" fill="#F55F44"/>
<path opacity="0.5" d="M106.327 21.6389C106.849 21.6389 107.272 21.2165 107.272 20.6954C107.272 20.1744 106.849 19.752 106.327 19.752C105.806 19.752 105.383 20.1744 105.383 20.6954C105.383 21.2165 105.806 21.6389 106.327 21.6389Z" fill="#F55F44"/>
<path opacity="0.5" d="M63.3741 57.1553C63.9614 57.1553 64.4376 56.6796 64.4376 56.0928C64.4376 55.506 63.9614 55.0303 63.3741 55.0303C62.7867 55.0303 62.3105 55.506 62.3105 56.0928C62.3105 56.6796 62.7867 57.1553 63.3741 57.1553Z" fill="#F55F44"/>
<path opacity="0.5" d="M63.3741 57.1553C63.9614 57.1553 64.4376 56.6796 64.4376 56.0928C64.4376 55.506 63.9614 55.0303 63.3741 55.0303C62.7867 55.0303 62.3105 55.506 62.3105 56.0928C62.3105 56.6796 62.7867 57.1553 63.3741 57.1553Z" fill="#F55F44"/>
<path opacity="0.5" d="M118.057 50.0066C118.578 50.0066 119.001 49.5842 119.001 49.0631C119.001 48.542 118.578 48.1196 118.057 48.1196C117.535 48.1196 117.112 48.542 117.112 49.0631C117.112 49.5842 117.535 50.0066 118.057 50.0066Z" fill="#F55F44"/>
<path opacity="0.5" d="M41.7139 7.75873C42.3013 7.75873 42.7774 7.28304 42.7774 6.69626C42.7774 6.10947 42.3013 5.63379 41.7139 5.63379C41.1265 5.63379 40.6504 6.10947 40.6504 6.69626C40.6504 7.28304 41.1265 7.75873 41.7139 7.75873Z" fill="#47E6B1"/>
<path opacity="0.5" d="M102.309 88.9739C102.83 88.9739 103.253 88.5514 103.253 88.0304C103.253 87.5093 102.83 87.0869 102.309 87.0869C101.787 87.0869 101.364 87.5093 101.364 88.0304C101.364 88.5514 101.787 88.9739 102.309 88.9739Z" fill="#F55F44"/>
<path d="M43.4906 54.0498C42.9319 55.8617 43.7742 58.0036 45.4092 58.957C46.0955 59.3565 46.8854 59.5576 47.5504 59.9911C48.9954 60.9318 49.5654 62.7323 50.0348 64.3898C50.5736 66.2951 51.1139 68.3096 50.6204 70.2263C50.3056 71.4488 49.5895 72.5297 49.1825 73.7253C48.8422 74.7268 48.7236 75.7902 48.8351 76.8419C48.8947 77.4 49.0337 77.9752 49.4165 78.3917C49.9695 78.9867 50.8601 79.0759 51.6598 79.219C53.3506 79.5384 54.9416 80.2537 56.3022 81.3062C57.6628 82.3586 58.7543 83.7183 59.4873 85.2736" stroke="url(#paint0_linear)" stroke-width="2" stroke-miterlimit="10"/>
<path d="M43.662 54.0498C43.1033 55.8617 43.9456 58.0036 45.5806 58.957C46.2669 59.3565 47.0567 59.5576 47.7218 59.9911C49.1668 60.9318 49.7368 62.7323 50.2062 64.3898C50.745 66.2951 51.2853 68.3096 50.7918 70.2263C50.477 71.4488 49.7609 72.5297 49.3539 73.7253C49.0136 74.7268 48.895 75.7902 49.0065 76.8419C49.0661 77.4 49.205 77.9752 49.5879 78.3917C50.1409 78.9867 51.0314 79.0759 51.8312 79.219C53.522 79.5384 55.113 80.2537 56.4736 81.3062C57.8342 82.3586 58.9257 83.7183 59.6587 85.2736" stroke="#1E2538" stroke-width="2" stroke-miterlimit="10"/>
<path d="M64.8103 40.5068C63.432 42.4264 62.0012 44.4904 61.8835 46.8505C61.7034 50.4756 64.6061 53.4406 65.9022 56.832C66.4639 58.3259 66.7181 59.9177 66.6497 61.5121C66.5812 63.1064 66.1914 64.6706 65.5037 66.1109C64.8713 67.4171 63.9694 68.7147 64.0857 70.1611C64.1523 71.0436 64.5948 71.8469 64.9507 72.6586C65.8242 74.6929 66.2054 76.9044 66.0633 79.1134C65.9211 81.3225 65.2596 83.467 64.1325 85.3728" stroke="url(#paint1_linear)" stroke-width="2" stroke-miterlimit="10"/>
<path d="M64.9807 40.5068C63.6038 42.4334 62.173 44.4918 62.0524 46.8505C61.8724 50.4756 64.775 53.4406 66.0711 56.832C66.6328 58.3259 66.8871 59.9177 66.8186 61.5121C66.7501 63.1064 66.3604 64.6706 65.6727 66.1109C65.0402 67.4171 64.1384 68.7147 64.2546 70.1611C64.3213 71.0436 64.7637 71.8469 65.1196 72.6586C65.9932 74.6929 66.3744 76.9044 66.2322 79.1134C66.09 81.3225 65.4285 83.467 64.3014 85.3728" stroke="#1E2538" stroke-width="2" stroke-miterlimit="10"/>
<path d="M84.1495 57.7729L84.8159 63.2C84.9039 63.9211 84.979 64.7073 84.5919 65.325C84.2246 65.9072 83.5354 66.1849 82.9994 66.6155C81.2397 68.0322 81.3999 70.7393 82.0068 72.9124C82.6137 75.0855 83.4872 77.4201 82.6435 79.5111C82.2947 80.3738 81.6793 81.1005 81.2255 81.9108C80.447 83.2956 80.1385 84.895 80.3463 86.4696" stroke="url(#paint2_linear)" stroke-width="2" stroke-miterlimit="10"/>
<path d="M84.3155 57.7729L84.9819 63.2C85.0699 63.9211 85.145 64.7073 84.7579 65.325C84.3906 65.9072 83.7015 66.1849 83.1655 66.6155C81.4057 68.0322 81.5659 70.7393 82.1728 72.9124C82.7798 75.0855 83.6533 77.4201 82.8095 79.5111C82.4607 80.3738 81.8453 81.1005 81.3915 81.9108C80.613 83.2956 80.3045 84.895 80.5123 86.4696" stroke="#1E2538" stroke-width="2" stroke-miterlimit="10"/>
<g opacity="0.7">
<path opacity="0.7" d="M101.431 35.4665C101.43 32.9276 100.827 30.4249 99.6727 28.1631C98.5182 25.9012 96.8443 23.9444 94.7879 22.4525C92.7316 20.9605 90.351 19.9758 87.8408 19.5789C85.3306 19.1819 82.762 19.3839 80.3449 20.1684C80.478 19.2644 80.5467 18.3522 80.5506 17.4386C80.5569 13.2687 78.9419 9.25945 76.0463 6.25632C73.1506 3.25318 69.2005 1.49099 65.0293 1.34142C60.8581 1.19184 56.7917 2.66658 53.688 5.45458C50.5842 8.24258 48.6857 12.1259 48.3928 16.2854C45.975 15.4993 43.4054 15.296 40.894 15.6923C38.3826 16.0885 36.0007 17.073 33.9432 18.5653C31.8857 20.0576 30.211 22.0153 29.0561 24.2782C27.9012 26.541 27.2988 29.0449 27.2983 31.585C27.2983 39.6597 33.254 51.1344 41.0035 53.1672L42.2102 53.8557L41.5551 56.0982H45.4348L44.5925 53.8529L45.7935 53.1672C51.7861 51.5962 56.6995 44.3842 58.6238 37.4668C59.6773 38.1673 60.837 38.6935 62.0582 39.0251L63.2649 39.7136L62.6197 41.9504H66.4994L65.6571 39.7051L66.8582 39.0194C67.7483 38.7802 68.6056 38.4324 69.4106 37.9839C70.4472 45.7441 75.9618 55.2185 82.9399 57.0474L84.1466 57.7359L83.4915 59.9784H87.3712L86.5261 57.733L87.7271 57.0474C95.4823 55.0145 101.431 43.5356 101.431 35.4665Z" fill="url(#paint3_linear)"/>
</g>
<path d="M46.0513 55.2686H42.2964L42.9543 53.019H45.2062L46.0513 55.2686Z" fill="#F55F44"/>
<path d="M59.6586 31.5481C59.6586 40.1442 52.6834 52.7366 44.0803 52.7366C35.4772 52.7366 28.502 40.1428 28.502 31.5481C28.502 27.4204 30.1433 23.4617 33.0649 20.5429C35.9866 17.6241 39.9492 15.9844 44.081 15.9844C48.2128 15.9844 52.1754 17.6241 55.097 20.5429C58.0187 23.4617 59.66 27.4204 59.66 31.5481H59.6586Z" fill="#FF6961"/>
<path d="M45.2064 53.1122H42.9546L41.6401 52.3628H46.521L45.2064 53.1122Z" fill="#1E2538"/>
<path opacity="0.1" d="M38.4498 19.4531C38.4498 19.4531 31.8801 23.0159 30.9414 30.1416L38.4498 19.4531Z" fill="white"/>
<path d="M66.4243 41.5865H62.6694L63.3274 39.3369H65.5792L66.4243 41.5865Z" fill="#4D8AF0"/>
<path d="M80.0317 17.8665C80.0317 26.4626 73.0564 39.055 64.4533 39.055C55.8502 39.055 48.875 26.4612 48.875 17.8665C48.875 13.7387 50.5164 9.78002 53.438 6.86125C56.3596 3.94248 60.3222 2.30273 64.454 2.30273C68.5859 2.30273 72.5485 3.94248 75.4701 6.86125C78.3917 9.78002 80.0331 13.7387 80.0331 17.8665H80.0317Z" fill="#FFA700"/>
<path d="M65.579 39.4305H63.3272L62.0127 38.6797H66.8935L65.579 39.4305Z" fill="#1E2538"/>
<path opacity="0.1" d="M58.8224 5.771C58.8224 5.771 52.2527 9.33381 51.314 16.4594L58.8224 5.771Z" fill="white"/>
<path d="M86.6255 59.0323H82.8706L83.5286 56.7812H85.7804L86.6255 59.0323Z" fill="#3AD29F"/>
<path d="M100.232 35.3108C100.232 43.9069 93.2571 56.4993 84.654 56.4993C76.0509 56.4993 69.0742 43.9069 69.0742 35.3108C69.0742 31.1831 70.7156 27.2244 73.6372 24.3056C76.5588 21.3868 80.5214 19.7471 84.6532 19.7471C88.7851 19.7471 92.7477 21.3868 95.6693 24.3056C98.5909 27.2244 100.232 31.1831 100.232 35.3108Z" fill="#60B158"/>
<path d="M85.7802 56.8749H83.5284L82.2139 56.1255H87.0947L85.7802 56.8749Z" fill="#1E2538"/>
<path opacity="0.1" d="M79.023 23.2158C79.023 23.2158 72.4534 26.7786 71.5146 33.9043L79.023 23.2158Z" fill="white"/>
<g opacity="0.5">
<path opacity="0.5" d="M73.2281 61.6843C72.3248 60.7791 71.0075 60.4193 69.5186 60.67C68.1261 60.9052 66.7322 61.6617 65.5949 62.795C65.2655 63.1259 64.9886 63.5052 64.7739 63.9198C64.5648 63.4913 64.2902 63.098 63.9599 62.7539C62.8425 61.5993 61.4614 60.8216 60.0675 60.5666C58.5842 60.2833 57.2612 60.6275 56.3409 61.5172C55.4206 62.4068 55.0435 63.7172 55.2732 65.2075C55.4887 66.6014 56.2232 68.0053 57.3421 69.157C59.6931 71.5809 64.3853 70.6346 64.5839 70.5921L64.642 70.5793L64.8221 70.6204C65.0206 70.6657 69.6958 71.6928 72.088 69.31C73.2224 68.1767 73.9839 66.787 74.225 65.3959C74.4873 63.907 74.1314 62.591 73.2281 61.6843ZM63.7955 69.1925C62.661 69.3455 59.8349 69.5523 58.4325 68.1059C57.5307 67.1752 56.9408 66.0645 56.772 64.9752C56.6189 63.9835 56.8401 63.1336 57.3988 62.5981C57.6168 62.389 57.8776 62.2295 58.1631 62.1306C58.6909 61.9601 59.2544 61.9318 59.7967 62.0484C60.88 62.251 61.9747 62.8743 62.8766 63.805C64.279 65.2415 63.984 68.0634 63.7955 69.191V69.1925ZM72.7446 65.1395C72.5574 66.2246 71.9491 67.3268 71.0302 68.2405C69.6022 69.6571 66.7761 69.4064 65.6488 69.2321C65.4801 68.0988 65.2333 65.2812 66.6613 63.8589C67.5801 62.9451 68.6848 62.3402 69.771 62.1589C70.3153 62.0517 70.8783 62.0898 71.4031 62.2694C71.6874 62.3734 71.9457 62.5378 72.1603 62.7511C72.7077 63.2993 72.9147 64.1464 72.7446 65.1381V65.1395Z" fill="url(#paint4_linear)"/>
</g>
<path d="M65.0446 70.2829L64.598 70.3764C64.408 70.4161 59.9185 71.3213 57.6681 69.0023C56.599 67.9002 55.8956 66.5572 55.6829 65.2227C55.4617 63.7962 55.8247 62.5425 56.7039 61.6911C57.5831 60.8397 58.8493 60.5167 60.2688 60.7816C61.5974 61.0295 62.919 61.7733 63.9882 62.8768C66.2372 65.1958 65.1907 69.6511 65.1453 69.8395L65.0446 70.2829ZM58.4466 62.2804C58.1733 62.3751 57.9236 62.5279 57.7149 62.7281C57.1818 63.2451 56.9691 64.0526 57.1151 65.0032C57.2768 66.0444 57.8411 67.1083 58.7047 67.9993C60.0476 69.3834 62.7517 69.185 63.8365 69.0391C64.0166 67.9611 64.3002 65.2667 62.9573 63.8826C62.0938 62.993 61.0473 62.3952 60.0093 62.2025C59.4906 62.0908 58.9516 62.1176 58.4466 62.2804Z" fill="#007AFF"/>
<path d="M64.3808 70.3027L64.2815 69.8579C64.239 69.6681 63.2691 65.1958 65.5578 62.9165C66.6468 61.8327 67.9797 61.1117 69.3127 60.8864C70.7307 60.6456 71.997 60.9898 72.8577 61.8568C73.7184 62.7238 74.063 63.9817 73.8177 65.3984C73.588 66.7286 72.862 68.0588 71.7729 69.1425C69.4842 71.4219 65.0104 70.4387 64.8246 70.3962L64.3808 70.3027ZM71.1164 62.4079C70.6148 62.2362 70.0768 62.1995 69.5566 62.3016C68.5157 62.4773 67.4593 63.0567 66.5787 63.9308C65.2118 65.2921 65.4443 67.9894 65.6102 69.0717C66.6922 69.236 69.3935 69.4811 70.759 68.1211C71.6382 67.2457 72.2196 66.1917 72.3997 65.1462C72.5627 64.1985 72.3642 63.3868 71.8396 62.8612C71.6339 62.66 71.3872 62.5054 71.1164 62.4079Z" fill="#007AFF"/>
<g opacity="0.5">
<path opacity="0.5" d="M86.2763 69.1113H42.7417V77.8137H45.0034V103H84.0145V77.8137H86.2763V69.1113Z" fill="url(#paint5_linear)"/>
</g>
<path d="M83.5212 71.7422H45.4971V102.572H83.5212V71.7422Z" fill="#1E2538"/>
<path d="M68.0906 77.2471H60.9268V102.571H68.0906V77.2471Z" fill="#007AFF"/>
<path opacity="0.1" d="M83.5212 70.0903H45.4971V77.7981H83.5212V70.0903Z" fill="black"/>
<path d="M85.7262 69.5396H43.2935V77.2474H85.7262V69.5396Z" fill="#1E2538"/>
<path d="M68.0906 69.5396H60.9268V77.2474H68.0906V69.5396Z" fill="#007AFF"/>
</g>
<defs>
<linearGradient id="paint0_linear" x1="43.1758" y1="69.6653" x2="59.6149" y2="69.6653" gradientUnits="userSpaceOnUse">
<stop stop-color="#808080" stop-opacity="0.25"/>
<stop offset="0.54" stop-color="#808080" stop-opacity="0.12"/>
<stop offset="1" stop-color="#808080" stop-opacity="0.1"/>
</linearGradient>
<linearGradient id="paint1_linear" x1="3008.3" y1="23851.8" x2="3179.36" y2="23851.8" gradientUnits="userSpaceOnUse">
<stop stop-color="#808080" stop-opacity="0.25"/>
<stop offset="0.54" stop-color="#808080" stop-opacity="0.12"/>
<stop offset="1" stop-color="#808080" stop-opacity="0.1"/>
</linearGradient>
<linearGradient id="paint2_linear" x1="3512.08" y1="17148.3" x2="3671.08" y2="17148.3" gradientUnits="userSpaceOnUse">
<stop stop-color="#808080" stop-opacity="0.25"/>
<stop offset="0.54" stop-color="#808080" stop-opacity="0.12"/>
<stop offset="1" stop-color="#808080" stop-opacity="0.1"/>
</linearGradient>
<linearGradient id="paint3_linear" x1="47051" y1="29902.7" x2="47051" y2="5632.65" gradientUnits="userSpaceOnUse">
<stop stop-color="#808080" stop-opacity="0.25"/>
<stop offset="0.54" stop-color="#808080" stop-opacity="0.12"/>
<stop offset="1" stop-color="#808080" stop-opacity="0.1"/>
</linearGradient>
<linearGradient id="paint4_linear" x1="12225" y1="6168.3" x2="12225" y2="5403.54" gradientUnits="userSpaceOnUse">
<stop stop-color="#808080" stop-opacity="0.25"/>
<stop offset="0.54" stop-color="#808080" stop-opacity="0.12"/>
<stop offset="1" stop-color="#808080" stop-opacity="0.1"/>
</linearGradient>
<linearGradient id="paint5_linear" x1="19847.5" y1="24708.8" x2="19847.5" y2="16602" gradientUnits="userSpaceOnUse">
<stop stop-color="#808080" stop-opacity="0.25"/>
<stop offset="0.54" stop-color="#808080" stop-opacity="0.12"/>
<stop offset="1" stop-color="#808080" stop-opacity="0.1"/>
</linearGradient>
<clipPath id="clip0">
<rect width="119" height="103" fill="white"/>
</clipPath>
</defs>
</svg>
